# xmcd
#
# Track frame offsets:
#	150
#	22132
#	35807
#	51435
#	65910
#	85462
#	98705
#	109332
#	120892
#	131555
#	147087
#	162812
#	176675
#	191227
#	211417
#	229972
#	242680
#	256017
#	271867
#	285825
#	298337
#	310117
#	320705
#
# Disc length: 4428
#
# Revision: 2
# Processed by: cddbd v1.5.1PL0 Copyright (c) Steve Scherf et al.
# Submitted via: EasyCDDAExtractor 5.1.0
# Normalized: r1:DSETVAR1
#
DISCID=60114a17
DTITLE=Various Artist - Boogie Beat (Shag Yer Blooz Away) Vol.2
DYEAR=1996
DGENRE=Beach
TTITLE0=Microwave Dave and The Nukes - Roadrunner
TTITLE1=Joe Louis and The Blues Kings - She Felt Too Good
TTITLE2=Jude Taylor and His Burning Flames - Hound Dog Roll
TTITLE3=Axel Zwingeberger and Champion Jack Dupree - Louise Louise Blues
TTITLE4=Radio Kings - Chonnie On Chon
TTITLE5=Don McMinn - Plastic Flowers
TTITLE6=Rob Rio - Fat Girl Boogie
TTITLE7=John Lee Hooker - I Love You Honey
TTITLE8=Elmore James - Take Me Where You Go
TTITLE9=Chick French f/ Greg 'Fingers' Taylor - Don't You Lie To Me
TTITLE10=Miranda Louise - Love The Man
TTITLE11=Clovers - Going Home To Jesus
TTITLE12=Rosco Gordon and Jane Powell - Last Call For Alcohol
TTITLE13=Carl Gardner and The Coasters - If I Had A Hammer
TTITLE14=Menage - Memory
TTITLE15=Ruby Winters - Just Like A Yoyo
TTITLE16=Kruze Band - Shoo Doo Fu Fu Ooh
TTITLE17=Entertainers - Anyway You Want It
TTITLE18=Rudy Blue Shoes - Mohair Sam
TTITLE19=Ronnie Dove - Slowboat To China, (On A)
TTITLE20=Lee Dorsey - Someday
TTITLE21=Jerry Butler - Chi Town (Talk About Chicago)
TTITLE22=Embers Big John Ruth Of WTRG Oldies - Sixty Minute Man
EXTD=
EXTT0=
EXTT1=
EXTT2=
EXTT3=
EXTT4=
EXTT5=
EXTT6=
EXTT7=
EXTT8=
EXTT9=
EXTT10=
EXTT11=
EXTT12=
EXTT13=
EXTT14=
EXTT15=
EXTT16=
EXTT17=
EXTT18=
EXTT19=
EXTT20=
EXTT21=
EXTT22=
PLAYORDER=
